<svg width="85" height="64" viewBox="0 0 85 64" fill="none" xmlns="http://www.w3.org/2000/svg">
<path fill-rule="evenodd" clip-rule="evenodd" d="M2.9026 1.9064C-0.54926 5.08795 0.910399 26.249 4.41263 24.34C6.9808 22.9551 7.17208 19.8743 5.74183 3.90588C5.45536 0.18501 5.07234 -0.0934392 2.9026 1.9064ZM5.29493 29.2095C2.21435 31.8805 7.62861 50.4208 11.3031 49.8404C13.7649 49.4515 13.4629 45.3941 10.1746 35.7827C7.39304 27.7106 7.24809 27.5075 5.29493 29.2095ZM56.9781 38.106C53.3676 39.8062 59.2721 43.0915 66.0718 43.2226C67.6925 43.2302 69.0613 43.3153 69.1832 43.3713C69.3959 43.526 63.0857 46.9708 55.6712 50.816C43.834 56.9415 44.7877 60.5947 56.4122 54.3144C65.4008 49.4674 71.1699 46.4094 71.4638 46.3629C71.6476 46.3339 71.3978 46.9006 70.9878 47.6433C64.8928 58.172 63.6073 61.2374 64.9959 61.9219C67.0479 62.9912 69.6798 60.5794 72.9651 54.6749C77.8961 45.8365 79.5239 43.508 83.8093 39.4039C85.4801 37.8218 83.666 37.5434 78.605 38.6442C70.9216 40.3098 66.6301 40.0838 61.8783 37.8969C60.3253 37.1253 58.9429 37.1931 56.9781 38.106ZM33.2889 62.9007C37.147 62.2912 37.5763 61.4325 39.3011 59.2394L38.4307 58.7366C37.9319 58.4388 35.94 58.2262 33.7141 58.2012C28.6626 58.1706 24.5955 56.7417 20.2323 53.4388C19.6792 53.0366 19.1435 52.7446 19.0023 52.8045C8.9074 56.1316 22.3758 64.6246 33.2889 62.9007Z" fill="#FFC13D"/>
</svg>
